<svg width="20" height="20" viewBox="0 0 20 20" fill="none" xmlns="http://www.w3.org/2000/svg">
<path d="M20 10C20 15.4902 15.468 20 9.95074 20C4.72906 20 0.492611 16.0784 0 10.9804H10.936L7.78325 14.2157C7.38916 14.6078 7.38916 15.1961 7.78325 15.5882C7.9803 15.7843 8.17734 15.8824 8.47291 15.8824C8.76847 15.8824 8.96552 15.7843 9.16256 15.5882L13.9901 10.6863C14.3842 10.2941 14.3842 9.70588 13.9901 9.31373L9.16256 4.41176C8.76847 4.01961 8.17734 4.01961 7.78325 4.41176C7.38916 4.80392 7.38916 5.39216 7.78325 5.78431L10.936 9.01961H0C0.492611 3.92157 4.82759 0 9.95074 0C15.468 0 20 4.5098 20 10Z" fill="#575FCC"/>
</svg>
