<svg width="24" height="24" viewBox="0 0 24 24" fill="black" xmlns="http://www.w3.org/2000/svg">
<path d="M19.5984 7.5V8.3V9.1V12C19.5984 14.9 17.2984 17.2 14.3984 17.2H8.89844H8.09844C7.79844 17.2 7.59844 17.2 7.39844 17.3C7.59844 18.8 8.99844 20 10.5984 20H16.3984C16.9984 20 17.6984 20.2 18.1984 20.6L21.6984 23.1C21.7984 23.2 21.9984 23.2 22.1984 23.2C22.2984 23.2 22.3984 23.2 22.5984 23.1C22.8984 23 22.9984 22.7 22.9984 22.4V10.9C22.9984 9 21.4984 7.5 19.5984 7.5Z" />
<path d="M8.1 15.5H8.9H14.5C16.5 15.5 18.1 13.9 18.1 11.9V9.1V8.3V7.5V5.6C18.1 3.6 16.5 2 14.5 2H4.6C2.6 2 1 3.6 1 5.6V18.3C1 18.6 1.2 18.9 1.4 19C1.5 19 1.7 19 1.8 19C2 19 2.1 19 2.3 18.9L6.1 16.2C6.5 15.9 6.9 15.8 7.3 15.6C7.5 15.6 7.8 15.5 8.1 15.5Z"/>
</svg>
