<svg width="24" height="25" viewBox="0 0 24 25" fill="black" xmlns="http://www.w3.org/2000/svg">
<path fill-rule="evenodd" clip-rule="evenodd" d="M1 6.02145C1 3.88599 2.62571 2.23999 4.76316 2.23999H14.2368C16.3973 2.23999 18 4.00882 18 6.02145V11.9817C18 14.1404 16.2523 15.7632 14.2368 15.7632H8.01974C7.37166 15.7632 6.78381 15.9763 6.23901 16.367L2.59201 19.0459C2.28819 19.2691 1.88468 19.3024 1.54834 19.1322C1.212 18.9619 1 18.617 1 18.24V6.02145ZM3 16.2646L5.06751 14.7459C5.90319 14.145 6.89305 13.7632 8.01974 13.7632H14.2368C15.182 13.7632 16 13.0019 16 11.9817V6.02145C16 5.05394 15.2342 4.23999 14.2368 4.23999H4.76316C3.74271 4.23999 3 4.97809 3 6.02145V16.2646Z" />
<path fill-rule="evenodd" clip-rule="evenodd" d="M19.5305 8.8609C19.7399 8.34985 20.3239 8.10528 20.835 8.31466C22.095 8.83088 23 10.0242 23 11.4225V22.24C23 22.6068 22.7992 22.9442 22.4768 23.119C22.1543 23.2939 21.762 23.2782 21.4546 23.0782L17.9546 20.8008C17.9328 20.7866 17.9115 20.7715 17.8908 20.7557C17.5068 20.4607 16.9266 20.2984 16.2353 20.2984H10.3676C8.98095 20.2984 7.68903 19.5326 7.09922 18.3094C6.85936 17.8119 7.0682 17.2141 7.56568 16.9743C8.06316 16.7344 8.66089 16.9433 8.90075 17.4407C9.13447 17.9255 9.69549 18.2984 10.3676 18.2984H16.2353C17.1784 18.2984 18.2298 18.51 19.0755 19.1441L21 20.3963V11.4225C21 10.923 20.6697 10.4083 20.0768 10.1654C19.5657 9.95599 19.3211 9.37196 19.5305 8.8609Z"/>
</svg>
