<svg width="16" height="8" viewBox="0 0 16 8" fill="black" xmlns="http://www.w3.org/2000/svg">
<path fill-rule="evenodd" clip-rule="evenodd" d="M0.236018 3.42436C0.550779 3.12672 1.06111 3.12672 1.3758 3.42436L4.03543 5.93901C4.35006 6.23666 4.35006 6.71915 4.03543 7.01679C3.72056 7.31439 3.21022 7.31439 2.89559 7.01679L0.236018 4.50208C-0.0786726 4.20449 -0.0786726 3.72196 0.236018 3.42436Z" />
<path fill-rule="evenodd" clip-rule="evenodd" d="M9.85355 0.463163C10.1684 0.760839 10.1684 1.24333 9.85355 1.54097L4.1546 6.92957C3.83973 7.22717 3.32957 7.22717 3.01476 6.92957C2.70007 6.63201 2.70007 6.14944 3.01476 5.85184L8.71371 0.463163C9.02852 0.165599 9.5388 0.165599 9.85355 0.463163Z" />
<path fill-rule="evenodd" clip-rule="evenodd" d="M6.14636 3.42436C6.46117 3.12672 6.97151 3.12672 7.2862 3.42436L9.94577 5.93901C10.2604 6.23666 10.2604 6.71915 9.94577 7.01679C9.6309 7.31439 9.12062 7.31439 8.80593 7.01679L6.14636 4.50208C5.83167 4.20449 5.83167 3.72196 6.14636 3.42436Z" />
<path fill-rule="evenodd" clip-rule="evenodd" d="M15.7639 0.463163C16.0787 0.760839 16.0787 1.24333 15.7639 1.54097L10.0649 6.92957C9.75005 7.22717 9.23989 7.22717 8.9251 6.92957C8.61041 6.63201 8.61041 6.14944 8.9251 5.85184L14.624 0.463163C14.9389 0.165599 15.4492 0.165599 15.7639 0.463163Z" />
</svg>
