<svg width="16" height="16" viewBox="0 0 16 16" fill="black" xmlns="http://www.w3.org/2000/svg">
<path d="M12.667 13.3334H3.33366C1.86699 13.3334 0.666992 12.1334 0.666992 10.6667V5.33335C0.666992 3.86669 1.86699 2.66669 3.33366 2.66669H12.667C14.1337 2.66669 15.3337 3.86669 15.3337 5.33335V10.6667C15.3337 12.1334 14.1337 13.3334 12.667 13.3334Z"/>
<path d="M8.00041 8.39998C7.60041 8.39998 7.13375 8.26664 6.80041 8.06664L3.46708 6.13331C3.13375 5.99997 3.00041 5.53331 3.20041 5.26664C3.33375 4.93331 3.80041 4.79998 4.06708 4.99998L7.40041 6.93331C7.73375 7.13331 8.20041 7.13331 8.53375 6.93331L11.8671 4.99998C12.2004 4.79998 12.6004 4.93331 12.8004 5.26664C13.0004 5.59998 12.8671 5.99998 12.5337 6.19998L9.20041 8.13331C8.86708 8.26664 8.40041 8.39998 8.00041 8.39998Z" fill="white"/>
</svg>
