<svg width="24" height="25" viewBox="0 0 24 25" fill="black" xmlns="http://www.w3.org/2000/svg">
<path d="M19 20.24H5C2.8 20.24 1 18.44 1 16.24V8.23999C1 6.03999 2.8 4.23999 5 4.23999H19C21.2 4.23999 23 6.03999 23 8.23999V16.24C23 18.44 21.2 20.24 19 20.24Z" />
<path d="M12 12.84C11.4 12.84 10.7 12.64 10.2 12.34L5.20001 9.43998C4.70001 9.23998 4.50001 8.53998 4.80001 8.13998C5.00001 7.63998 5.70001 7.43998 6.10001 7.73998L11.1 10.64C11.6 10.94 12.3 10.94 12.8 10.64L17.8 7.73998C18.3 7.43998 18.9 7.63998 19.2 8.13998C19.5 8.63998 19.3 9.23998 18.8 9.53998L13.8 12.44C13.3 12.64 12.6 12.84 12 12.84Z" fill="white"/>
</svg>
