<svg width="24" height="25" viewBox="0 0 24 25" fill="black" xmlns="http://www.w3.org/2000/svg">
<path fill-rule="evenodd" clip-rule="evenodd" d="M3.57495 2.02506C4.86403 0.740086 7.02542 1.09942 7.93802 2.61558L7.94437 2.62613L10.0481 6.22115C10.6676 7.30184 10.5113 8.69111 9.58705 9.6124L9.23813 9.96021C10.4736 11.8979 12.3503 13.815 14.2473 14.9648L14.5942 14.6575C15.5184 13.7564 16.898 13.6083 17.9731 14.2207L17.9809 14.2251L21.5408 16.2952C22.4222 16.7171 22.8861 17.5324 22.981 18.3464C23.0759 19.1596 22.8156 20.0422 22.1826 20.6732L20.983 21.869C19.7376 23.1105 17.7101 23.6599 15.9799 22.876C13.7025 21.9453 10.2868 20.1891 7.17369 17.0859C4.05248 13.9746 2.29312 10.4635 1.36877 8.31564C0.580206 6.59619 1.1236 4.58014 2.36039 3.33549L3.54727 2.05379C3.5563 2.04403 3.56553 2.03445 3.57495 2.02506ZM4.99956 3.4237L3.81678 4.70097C3.80774 4.71073 3.79851 4.72031 3.78909 4.7297C3.04036 5.47605 2.79124 6.63218 3.19016 7.49374C3.194 7.50204 3.19773 7.51039 3.20134 7.51879C4.07772 9.55718 5.71644 12.8149 8.5874 15.6767C11.4635 18.5436 14.635 20.1743 16.7561 21.0393C16.7697 21.0448 16.7831 21.0507 16.7965 21.0568C17.6608 21.4544 18.8206 21.2061 19.5693 20.4598L20.7689 19.264C20.9356 19.0978 21.0252 18.8345 20.9951 18.5765C20.9669 18.335 20.8472 18.1694 20.6622 18.0856C20.6315 18.0717 20.6014 18.0562 20.5722 18.0392L16.9781 15.9493C16.6631 15.7717 16.2592 15.8159 15.9848 16.0895C15.971 16.1033 15.9567 16.1167 15.9421 16.1296L15.0424 16.9268C14.7325 17.2013 14.2849 17.2568 13.9171 17.0661C11.2199 15.6681 8.58822 12.9258 7.10831 10.2915C6.88962 9.90222 6.95716 9.41548 7.27365 9.1L8.17334 8.20318C8.44778 7.92961 8.49207 7.52698 8.31392 7.21305L6.22104 3.63665C5.93617 3.16941 5.31277 3.12678 4.99956 3.4237Z" />
</svg>
