<svg width="24" height="25" viewBox="0 0 24 25" fill="black" xmlns="http://www.w3.org/2000/svg">
<path d="M22.9813 18.4222C22.8816 17.5189 22.3828 16.8163 21.5849 16.3145L17.994 14.2067C16.8968 13.6045 15.5004 13.8052 14.6027 14.6082L14.2037 15.0097C12.3085 13.8052 10.4134 11.8982 9.21642 9.99118L9.6154 9.5897C10.5131 8.78674 10.7126 7.38157 10.1141 6.2775L8.01947 2.66419C7.62049 1.86123 6.82253 1.35938 5.92482 1.25901C5.12685 1.15864 4.22914 1.45975 3.63067 2.06197L2.43373 3.26641C1.03729 4.67158 0.638307 6.57861 1.33653 8.28489C2.33398 10.5934 4.02965 14.006 7.12176 17.1174C10.2139 20.2289 13.6052 22.0356 15.8994 22.9389C16.4978 23.1396 17.0963 23.24 17.595 23.24C18.792 23.24 19.9889 22.7381 20.8866 21.8348L22.0836 20.6304C22.7818 20.1285 23.081 19.2252 22.9813 18.4222Z" />
</svg>
