<svg width="16" height="16" viewBox="0 0 16 16" fill="black" xmlns="http://www.w3.org/2000/svg">
<path d="M15.3212 12.1215C15.2547 11.5193 14.9222 11.0509 14.3902 10.7163L11.9963 9.31117C11.2649 8.90969 10.3339 9.04352 9.73544 9.57882L9.46946 9.84647C8.20601 9.04351 6.94257 7.77216 6.14461 6.50081L6.41059 6.23316C7.00907 5.69786 7.14206 4.76107 6.74308 4.02503L5.34664 1.61615C5.08065 1.08085 4.54868 0.74628 3.9502 0.679367C3.41823 0.612454 2.81976 0.813193 2.42077 1.21467L1.62281 2.01763C0.691852 2.95442 0.425864 4.22577 0.891343 5.36329C1.55631 6.90229 2.68676 9.17734 4.74817 11.2516C6.80958 13.326 9.07047 14.5304 10.5999 15.1326C10.9989 15.2664 11.3979 15.3334 11.7304 15.3334C12.5283 15.3334 13.3263 14.9988 13.9248 14.3966L14.7227 13.5936C15.1882 13.259 15.3877 12.6568 15.3212 12.1215Z" />
</svg>
