<svg width="20" height="20" viewBox="0 0 20 20" fill="black" xmlns="http://www.w3.org/2000/svg">
<path d="M15.0835 18.3328C16.8784 18.3328 18.3335 16.8777 18.3335 15.0828C18.3335 13.2878 16.8784 11.8328 15.0835 11.8328C13.2886 11.8328 11.8335 13.2878 11.8335 15.0828C11.8335 16.8777 13.2886 18.3328 15.0835 18.3328Z" />
<path d="M8.91678 8.66601C9.00011 8.66601 9.16678 8.66602 9.25011 8.58268L12.5834 6.91602C13.1668 7.66602 14.0834 8.16602 15.0834 8.16602C16.9168 8.08268 18.3334 6.66602 18.3334 4.91602C18.3334 3.16602 16.9168 1.66602 15.0834 1.66602C13.3334 1.66602 11.8334 3.08268 11.8334 4.91602C11.8334 5.08268 11.8334 5.24935 11.9168 5.41602L8.50011 7.08268C8.08344 7.33268 7.91678 7.83268 8.16678 8.16602C8.25011 8.49935 8.58344 8.66601 8.91678 8.66601Z" />
<path d="M11.4167 12.4993L8.00008 10.8326C8.08342 10.5826 8.08342 10.3326 8.08342 9.99927C8.08342 8.24927 6.66675 6.74927 4.83341 6.74927C3.00008 6.74927 1.66675 8.24927 1.66675 9.99927C1.66675 11.7493 3.08341 13.2493 4.91675 13.2493C5.83342 13.2493 6.66675 12.9159 7.25008 12.2493L10.7501 13.9993C10.8334 14.0826 11.0001 14.0826 11.0834 14.0826C11.4167 14.0826 11.6667 13.9159 11.8334 13.5826C12.0001 13.2493 11.8334 12.7493 11.4167 12.4993Z" />
</svg>
