<svg width="20" height="20" viewBox="0 0 20 20" fill="black" xmlns="http://www.w3.org/2000/svg">
<path d="M11.5167 2.49968C11.5167 2.33264 11.4169 2.18175 11.2632 2.11632C11.1095 2.05088 10.9316 2.08356 10.8112 2.19934L9.32958 3.62398C7.12356 5.74515 5.25953 8.19533 3.80384 10.8873C3.76956 10.9478 3.75 11.0178 3.75 11.0923C3.75 11.3224 3.93655 11.509 4.16667 11.509H7.75833V17.4997C7.75833 17.6647 7.8557 17.8141 8.00663 17.8808C8.15756 17.9475 8.33361 17.9188 8.45559 17.8077L9.11852 17.2038C11.4391 15.0899 13.4085 12.6202 14.9527 9.88719L15.3628 9.16148C15.4357 9.03248 15.4346 8.87448 15.3599 8.7465C15.2852 8.61853 15.1482 8.53984 15 8.53984H11.5167V2.49968Z" />
</svg>
