<svg width="20" height="20" viewBox="0 0 20 20" fill="black" xmlns="http://www.w3.org/2000/svg">
<g clip-path="url(#clip0_7_2176)">
<path d="M2.14286 7.5C2.14286 6.44046 2.45705 5.40471 3.0457 4.52373C3.63435 3.64275 4.47102 2.95611 5.44991 2.55065C6.4288 2.14518 7.50594 2.03909 8.54512 2.24579C9.58431 2.4525 10.5389 2.96272 11.2881 3.71193C12.0373 4.46114 12.5475 5.41569 12.7542 6.45487C12.9609 7.49406 12.8548 8.5712 12.4494 9.55009C12.0439 10.529 11.3572 11.3656 10.4763 11.9543C9.59529 12.5429 8.55954 12.8571 7.5 12.8571C6.0792 12.8571 4.71659 12.2927 3.71193 11.2881C2.70727 10.2834 2.14286 8.9208 2.14286 7.5V7.5ZM8.94366e-08 7.5C7.17477e-08 8.98336 0.439867 10.4334 1.26398 11.6668C2.08809 12.9001 3.25943 13.8614 4.62987 14.4291C6.00032 14.9968 7.50832 15.1453 8.96317 14.8559C10.418 14.5665 11.7544 13.8522 12.8033 12.8033C13.8522 11.7544 14.5665 10.418 14.8559 8.96318C15.1453 7.50832 14.9967 6.00032 14.4291 4.62987C13.8614 3.25943 12.9001 2.08809 11.6668 1.26398C10.4334 0.439868 8.98336 8.56442e-07 7.5 8.38753e-07C5.51088 8.15033e-07 3.60322 0.790177 2.1967 2.1967C0.790176 3.60322 1.13157e-07 5.51088 8.94366e-08 7.5V7.5Z"/>
<path fill-rule="evenodd" clip-rule="evenodd" d="M11.2929 11.2929C11.6834 10.9024 12.3166 10.9024 12.7071 11.2929L19.7071 18.2929C20.0976 18.6834 20.0976 19.3166 19.7071 19.7071C19.3166 20.0976 18.6834 20.0976 18.2929 19.7071L11.2929 12.7071C10.9024 12.3166 10.9024 11.6834 11.2929 11.2929Z" />
</g>
<defs>
<clipPath id="clip0_7_2176">
<rect width="20" height="20" fill="white" transform="translate(0 20) rotate(-90)"/>
</clipPath>
</defs>
</svg>
