<svg width="24" height="24" viewBox="0 0 24 24" fill="black" xmlns="http://www.w3.org/2000/svg">
<path d="M8.99694 18.3296C8.64393 18.3281 8.30591 18.1867 8.05703 17.9363L4.39071 14.27C4.14054 14.0198 4 13.6805 4 13.3267C4 12.9729 4.14054 12.6336 4.39071 12.3835C4.64087 12.1333 4.98017 11.9928 5.33395 11.9928C5.68774 11.9928 6.02703 12.1333 6.2772 12.3835L9.00361 15.1099L17.7228 6.39071C17.973 6.14054 18.3123 6 18.666 6C19.0198 6 19.3591 6.14054 19.6093 6.39071C19.8595 6.64087 20 6.98017 20 7.33395C20 7.68774 19.8595 8.02703 19.6093 8.2772L9.94352 17.943C9.81895 18.0665 9.67121 18.1643 9.50877 18.2306C9.34634 18.297 9.1724 18.3306 8.99694 18.3296Z" />
</svg>
