<svg width="24" height="24" viewBox="0 0 24 24" fill="black" xmlns="http://www.w3.org/2000/svg">
<path d="M16.7437 8.49378C17.0854 8.15206 17.0854 7.59801 16.7437 7.25629C16.402 6.91457 15.8479 6.91457 15.5062 7.25629L12 10.7625L8.49379 7.25629C8.15207 6.91457 7.59803 6.91457 7.2563 7.25629C6.91458 7.59802 6.91458 8.15206 7.2563 8.49378L10.7625 12L7.25629 15.5062C6.91457 15.8479 6.91457 16.402 7.25629 16.7437C7.59801 17.0854 8.15206 17.0854 8.49378 16.7437L12 13.2375L15.5062 16.7437C15.8479 17.0854 16.402 17.0854 16.7437 16.7437C17.0854 16.402 17.0854 15.8479 16.7437 15.5062L13.2375 12L16.7437 8.49378Z" />
</svg>
