<svg width="20" height="20" viewBox="0 0 20 20" fill="black" xmlns="http://www.w3.org/2000/svg">
<path d="M8.32696 15.0692C8.74526 15.5782 9.33088 15.8327 10.0002 15.8327C10.6694 15.8327 11.2551 15.5782 11.6734 15.0692L16.2747 9.47041C16.693 8.96142 16.7766 8.19795 16.5257 7.60414C16.2747 7.01033 15.6891 6.58618 15.0198 6.58618H13.0956V3.61711C13.0956 2.51432 12.259 1.66602 11.1714 1.66602H8.91258C7.825 1.66602 6.90474 2.51432 6.90474 3.61711V6.58618H4.98055C4.31127 6.67101 3.72565 7.01033 3.47467 7.60414C3.22369 8.19795 3.30735 8.96142 3.72565 9.47041L8.32696 15.0692Z" />
<path d="M17.4213 12.5826C16.9238 12.5826 16.5921 12.9159 16.5921 13.4159V15.4993C16.5921 16.1659 16.0117 16.7493 15.3483 16.7493H4.5689C3.90555 16.6659 3.32512 16.0826 3.32512 15.4159V13.3326C3.32512 12.8326 2.99345 12.4993 2.49594 12.4993C1.99842 12.4993 1.66675 12.8326 1.66675 13.3326V15.4159C1.66675 17.0826 2.91053 18.3326 4.5689 18.3326H15.4313C17.0067 18.3326 18.3334 17.0826 18.3334 15.4159V13.3326C18.2505 12.9159 17.9188 12.5826 17.4213 12.5826Z" />
</svg>
