<svg width="22" height="19" viewBox="0 0 22 19" fill="black" xmlns="http://www.w3.org/2000/svg">
<path d="M20.8 6.8C18.8 5.1 15.5 3 11 3C10.7 3 10.4 3 9.99999 3C9.59999 3 9.29999 3.3 9.09999 3.6C8.89999 3.9 9.09999 4.4 9.29999 4.7L17.7 13.1C17.9 13.3 18.1 13.4 18.4 13.4C18.6 13.4 18.8 13.3 18.9 13.2C19.5 12.8 20 12.4 20.6 11.9C21.4 11.3 21.8 10.3 21.8 9.3C22 8.4 21.6 7.5 20.8 6.8Z" />
<path d="M16.3 13.3L7.1 4.2L3.3 0.3C2.9 -0.1 2.3 -0.1 1.9 0.3C1.5 0.7 1.5 1.3 1.9 1.7L4.7 4.5C3.4 5.1 2.3 5.9 1.2 6.8C0.4 7.5 0 8.4 0 9.5C0 10.5 0.4 11.5 1.2 12.1C3.2 13.8 6.5 15.9 11 15.9C12.5 15.9 13.9 15.7 15.3 15.2L18.8 18.7C19 18.9 19.3 19 19.5 19C19.8 19 20 18.9 20.2 18.7C20.6 18.3 20.6 17.7 20.2 17.3L16.3 13.3ZM11 11.8C9.7 11.8 8.7 10.8 8.7 9.5C8.7 9.2 8.7 9 8.8 8.7L11.7 11.6C11.5 11.7 11.3 11.8 11 11.8Z" />
</svg>
