<svg width="105" height="45" viewBox="0 0 105 45" fill="none" xmlns="http://www.w3.org/2000/svg">
<path d="M58.8591 30.2628C57.3863 30.2628 56.1637 30.0528 55.1916 29.6328C54.2195 29.1978 53.4831 28.6353 52.9823 27.9453C52.4815 27.2553 52.2164 26.5203 52.1869 25.7403C52.1869 25.6203 52.2311 25.5153 52.3195 25.4253C52.4226 25.3203 52.5404 25.2678 52.673 25.2678H55.4568C55.663 25.2678 55.8176 25.3053 55.9207 25.3803C56.0385 25.4553 56.1416 25.5528 56.23 25.6728C56.3479 25.8978 56.5099 26.1153 56.7161 26.3253C56.937 26.5353 57.2169 26.7078 57.5556 26.8428C57.9091 26.9628 58.3436 27.0228 58.8591 27.0228C59.7134 27.0228 60.3541 26.8878 60.7813 26.6178C61.2231 26.3478 61.4441 25.9803 61.4441 25.5153C61.4441 25.1853 61.3262 24.9153 61.0906 24.7053C60.8549 24.4803 60.472 24.2853 59.9417 24.1203C59.4262 23.9403 58.734 23.7603 57.8649 23.5803C56.7455 23.3403 55.7882 23.0327 54.9928 22.6577C54.2122 22.2677 53.6156 21.7653 53.2032 21.1502C52.7908 20.5202 52.5846 19.7402 52.5846 18.8102C52.5846 17.8952 52.835 17.0777 53.3358 16.3577C53.8513 15.6377 54.5656 15.0752 55.4788 14.6702C56.392 14.2652 57.4746 14.0627 58.7266 14.0627C59.7429 14.0627 60.634 14.1977 61.3999 14.4677C62.1806 14.7377 62.836 15.0977 63.3662 15.5477C63.8965 15.9977 64.2941 16.4777 64.5593 16.9877C64.8391 17.4827 64.9864 17.9702 65.0011 18.4502C65.0011 18.5702 64.9569 18.6827 64.8686 18.7877C64.7802 18.8777 64.6697 18.9227 64.5372 18.9227H61.6208C61.4588 18.9227 61.3189 18.8927 61.2011 18.8327C61.0832 18.7727 60.9801 18.6752 60.8917 18.5402C60.8034 18.2102 60.5677 17.9252 60.1848 17.6852C59.8166 17.4302 59.3305 17.3027 58.7266 17.3027C58.0785 17.3027 57.5704 17.4227 57.2021 17.6627C56.8486 17.8877 56.6719 18.2402 56.6719 18.7202C56.6719 19.0202 56.7676 19.2827 56.9591 19.5077C57.1653 19.7327 57.4967 19.9277 57.9533 20.0927C58.4246 20.2577 59.0654 20.4302 59.8754 20.6102C61.2158 20.8653 62.2983 21.1877 63.1232 21.5777C63.948 21.9527 64.5519 22.4477 64.9348 23.0628C65.3178 23.6627 65.5093 24.4203 65.5093 25.3353C65.5093 26.3553 65.2221 27.2403 64.6476 27.9903C64.0879 28.7253 63.3073 29.2878 62.3057 29.6778C61.3041 30.0679 60.1553 30.2628 58.8591 30.2628ZM67.1687 30.0378C67.0067 30.0378 66.8741 29.9853 66.771 29.8803C66.6679 29.7754 66.6164 29.6404 66.6164 29.4753V14.8502C66.6164 14.6851 66.6679 14.5501 66.771 14.4452C66.8741 14.3402 67.0067 14.2877 67.1687 14.2877H70.1292C70.2913 14.2877 70.4238 14.3402 70.5269 14.4452C70.63 14.5501 70.6816 14.6851 70.6816 14.8502V29.4753C70.6816 29.6404 70.63 29.7754 70.5269 29.8803C70.4238 29.9853 70.2913 30.0378 70.1292 30.0378H67.1687ZM78.4412 30.2628C76.9683 30.2628 75.7458 30.0528 74.7737 29.6328C73.8016 29.1978 73.0651 28.6353 72.5643 27.9453C72.0636 27.2553 71.7985 26.5203 71.769 25.7403C71.769 25.6203 71.8132 25.5153 71.9015 25.4253C72.0046 25.3203 72.1225 25.2678 72.255 25.2678H75.0388C75.245 25.2678 75.3997 25.3053 75.5028 25.3803C75.6206 25.4553 75.7237 25.5528 75.8121 25.6728C75.9299 25.8978 76.0919 26.1153 76.2981 26.3253C76.5191 26.5353 76.7989 26.7078 77.1377 26.8428C77.4912 26.9628 77.9257 27.0228 78.4412 27.0228C79.2955 27.0228 79.9362 26.8878 80.3633 26.6178C80.8052 26.3478 81.0261 25.9803 81.0261 25.5153C81.0261 25.1853 80.9083 24.9153 80.6726 24.7053C80.437 24.4803 80.054 24.2853 79.5238 24.1203C79.0082 23.9403 78.316 23.7603 77.447 23.5803C76.3276 23.3403 75.3702 23.0327 74.5748 22.6577C73.7942 22.2677 73.1977 21.7653 72.7853 21.1502C72.3729 20.5202 72.1667 19.7402 72.1667 18.8102C72.1667 17.8952 72.4171 17.0777 72.9178 16.3577C73.4334 15.6377 74.1477 15.0752 75.0609 14.6702C75.9741 14.2652 77.0567 14.0627 78.3086 14.0627C79.3249 14.0627 80.2161 14.1977 80.9819 14.4677C81.7626 14.7377 82.418 15.0977 82.9483 15.5477C83.4785 15.9977 83.8762 16.4777 84.1413 16.9877C84.4211 17.4827 84.5685 17.9702 84.5832 18.4502C84.5832 18.5702 84.539 18.6827 84.4506 18.7877C84.3623 18.8777 84.2518 18.9227 84.1192 18.9227H81.2029C81.0408 18.9227 80.901 18.8927 80.7831 18.8327C80.6653 18.7727 80.5622 18.6752 80.4738 18.5402C80.3854 18.2102 80.1498 17.9252 79.7668 17.6852C79.3986 17.4302 78.9126 17.3027 78.3086 17.3027C77.6605 17.3027 77.1524 17.4227 76.7842 17.6627C76.4307 17.8877 76.2539 18.2402 76.2539 18.7202C76.2539 19.0202 76.3497 19.2827 76.5412 19.5077C76.7474 19.7327 77.0788 19.9277 77.5354 20.0927C78.0067 20.2577 78.6474 20.4302 79.4575 20.6102C80.7978 20.8653 81.8804 21.1877 82.7052 21.5777C83.5301 21.9527 84.1339 22.4477 84.5169 23.0628C84.8999 23.6627 85.0913 24.4203 85.0913 25.3353C85.0913 26.3553 84.8041 27.2403 84.2297 27.9903C83.67 28.7253 82.8894 29.2878 81.8878 29.6778C80.8862 30.0679 79.7373 30.2628 78.4412 30.2628ZM86.7508 30.0378C86.5887 30.0378 86.4562 29.9853 86.3531 29.8803C86.25 29.7754 86.1984 29.6404 86.1984 29.4753V14.8502C86.1984 14.6851 86.25 14.5501 86.3531 14.4452C86.4562 14.3402 86.5887 14.2877 86.7508 14.2877H93.4893C94.756 14.2877 95.7944 14.4677 96.6044 14.8277C97.4145 15.1877 98.011 15.7052 98.394 16.3802C98.7917 17.0402 98.9905 17.8277 98.9905 18.7427C98.9905 19.2827 98.8875 19.7627 98.6812 20.1827C98.4898 20.5877 98.2467 20.9252 97.9521 21.1952C97.6723 21.4652 97.4072 21.6602 97.1568 21.7802C97.7165 22.0502 98.2099 22.4927 98.637 23.1078C99.0789 23.7228 99.2998 24.4428 99.2998 25.2678C99.2998 26.2578 99.0789 27.1128 98.637 27.8328C98.2099 28.5378 97.5766 29.0853 96.737 29.4753C95.9122 29.8503 94.8959 30.0378 93.6881 30.0378H86.7508ZM90.1532 27.1128H93.2462C93.8796 27.1128 94.3583 26.9253 94.6823 26.5503C95.0063 26.1753 95.1684 25.7478 95.1684 25.2678C95.1684 24.7428 94.999 24.3003 94.6602 23.9403C94.3362 23.5803 93.8649 23.4003 93.2462 23.4003H90.1532V27.1128ZM90.1532 20.5427H93.0474C93.6513 20.5427 94.1005 20.3852 94.3951 20.0702C94.7044 19.7552 94.8591 19.3502 94.8591 18.8552C94.8591 18.3752 94.7044 17.9852 94.3951 17.6852C94.1005 17.3702 93.6513 17.2127 93.0474 17.2127H90.1532V20.5427ZM101.202 30.0378C101.04 30.0378 100.908 29.9853 100.804 29.8803C100.701 29.7754 100.65 29.6404 100.65 29.4753V14.8502C100.65 14.6851 100.701 14.5501 100.804 14.4452C100.908 14.3402 101.04 14.2877 101.202 14.2877H104.163C104.325 14.2877 104.457 14.3402 104.56 14.4452C104.663 14.5501 104.715 14.6851 104.715 14.8502V29.4753C104.715 29.6404 104.663 29.7754 104.56 29.8803C104.457 29.9853 104.325 30.0378 104.163 30.0378H101.202Z" fill="#283244"/>
<path fill-rule="evenodd" clip-rule="evenodd" d="M22.0935 0C9.64649 0 0 9.28529 0 21.8258C0 28.3857 2.64051 34.0538 6.93921 37.9698C7.29926 38.3003 7.51709 38.7576 7.53491 39.251L7.65497 43.2531C7.69488 44.5298 8.98852 45.3583 10.1354 44.8466L14.5186 42.8773C14.892 42.7098 15.3054 42.6781 15.6966 42.7868C17.7103 43.3527 19.8575 43.6515 22.0935 43.6515C34.5406 43.6515 44.1869 34.3662 44.1869 21.8258C44.1869 9.28529 34.5406 0 22.0935 0Z" fill="url(#paint0_linear_26_1841)"/>
<path opacity="0.5" d="M19.9205 10.2485L11.9781 12.4158C10.5049 12.8178 9.63058 14.36 10.0253 15.8604L14.5253 32.9637C14.9201 34.4641 16.4344 35.3545 17.9077 34.9525L25.85 32.7852C27.3233 32.3831 28.1976 30.8409 27.8028 29.3405L23.3029 12.2372C22.9081 10.7368 21.3938 9.84643 19.9205 10.2485Z" fill="white"/>
<path d="M31.8535 12.4967L23.9111 10.3294C22.4378 9.92735 20.9235 10.8177 20.5287 12.3181L16.0288 29.4214C15.634 30.9218 16.5083 32.4641 17.9816 32.8661L25.924 35.0334C27.3972 35.4355 28.9115 34.5451 29.3063 33.0447L33.8063 15.9414C34.201 14.441 33.3267 12.8987 31.8535 12.4967Z" fill="white"/>
<defs>
<linearGradient id="paint0_linear_26_1841" x1="22.0935" y1="2.16653e-05" x2="22.0935" y2="45.0005" gradientUnits="userSpaceOnUse">
<stop stop-color="#99BCFE"/>
<stop offset="1" stop-color="#575FCC"/>
</linearGradient>
</defs>
</svg>
