<svg width="173" height="173" viewBox="0 0 173 173" fill="none" xmlns="http://www.w3.org/2000/svg">
<rect width="173" height="173" rx="24" fill="#F3F3F5"/>
<path d="M75.3333 92.3335L81.4479 86.2188C81.948 85.7189 82.6261 85.4381 83.3333 85.4381C84.0404 85.4381 84.7185 85.7189 85.2186 86.2188L91.3333 92.3335M88.6666 89.6668L90.7813 87.5522C91.2813 87.0522 91.9595 86.7714 92.6666 86.7714C93.3737 86.7714 94.0518 87.0522 94.5519 87.5522L96.6666 89.6668M88.6666 81.6668H88.6799M77.9999 97.6668H93.9999C94.7072 97.6668 95.3854 97.3859 95.8855 96.8858C96.3856 96.3857 96.6666 95.7074 96.6666 95.0002V79.0002C96.6666 78.2929 96.3856 77.6146 95.8855 77.1145C95.3854 76.6144 94.7072 76.3335 93.9999 76.3335H77.9999C77.2927 76.3335 76.6144 76.6144 76.1143 77.1145C75.6142 77.6146 75.3333 78.2929 75.3333 79.0002V95.0002C75.3333 95.7074 75.6142 96.3857 76.1143 96.8858C76.6144 97.3859 77.2927 97.6668 77.9999 97.6668Z" stroke="#919399" stroke-width="2" stroke-linecap="round" stroke-linejoin="round"/>
</svg>
