<svg width="153" height="64" viewBox="0 0 153 64" fill="none" xmlns="http://www.w3.org/2000/svg">
<path d="M85.664 43.04C83.5307 43.04 81.76 42.7413 80.352 42.144C78.944 41.5253 77.8773 40.7253 77.152 39.744C76.4267 38.7627 76.0427 37.7173 76 36.608C76 36.4373 76.064 36.288 76.192 36.16C76.3413 36.0107 76.512 35.936 76.704 35.936H80.736C81.0347 35.936 81.2587 35.9893 81.408 36.096C81.5787 36.2027 81.728 36.3413 81.856 36.512C82.0267 36.832 82.2613 37.1413 82.56 37.44C82.88 37.7387 83.2853 37.984 83.776 38.176C84.288 38.3467 84.9173 38.432 85.664 38.432C86.9013 38.432 87.8293 38.24 88.448 37.856C89.088 37.472 89.408 36.9493 89.408 36.288C89.408 35.8187 89.2373 35.4347 88.896 35.136C88.5547 34.816 88 34.5387 87.232 34.304C86.4853 34.048 85.4827 33.792 84.224 33.536C82.6027 33.1947 81.216 32.7573 80.064 32.224C78.9333 31.6693 78.0693 30.9547 77.472 30.08C76.8747 29.184 76.576 28.0747 76.576 26.752C76.576 25.4507 76.9387 24.288 77.664 23.264C78.4107 22.24 79.4453 21.44 80.768 20.864C82.0907 20.288 83.6587 20 85.472 20C86.944 20 88.2347 20.192 89.344 20.576C90.4747 20.96 91.424 21.472 92.192 22.112C92.96 22.752 93.536 23.4347 93.92 24.16C94.3253 24.864 94.5387 25.5573 94.56 26.24C94.56 26.4107 94.496 26.5707 94.368 26.72C94.24 26.848 94.08 26.912 93.888 26.912H89.664C89.4293 26.912 89.2267 26.8693 89.056 26.784C88.8853 26.6987 88.736 26.56 88.608 26.368C88.48 25.8987 88.1387 25.4933 87.584 25.152C87.0507 24.7893 86.3467 24.608 85.472 24.608C84.5333 24.608 83.7973 24.7787 83.264 25.12C82.752 25.44 82.496 25.9413 82.496 26.624C82.496 27.0507 82.6347 27.424 82.912 27.744C83.2107 28.064 83.6907 28.3413 84.352 28.576C85.0347 28.8107 85.9627 29.056 87.136 29.312C89.0773 29.6747 90.6453 30.1333 91.84 30.688C93.0347 31.2213 93.9093 31.9253 94.464 32.8C95.0187 33.6533 95.296 34.7307 95.296 36.032C95.296 37.4827 94.88 38.7413 94.048 39.808C93.2373 40.8533 92.1067 41.6533 90.656 42.208C89.2053 42.7627 87.5413 43.04 85.664 43.04ZM97.6995 42.72C97.4648 42.72 97.2728 42.6453 97.1235 42.496C96.9742 42.3467 96.8995 42.1547 96.8995 41.92V21.12C96.8995 20.8853 96.9742 20.6933 97.1235 20.544C97.2728 20.3947 97.4648 20.32 97.6995 20.32H101.988C102.222 20.32 102.414 20.3947 102.564 20.544C102.713 20.6933 102.788 20.8853 102.788 21.12V41.92C102.788 42.1547 102.713 42.3467 102.564 42.496C102.414 42.6453 102.222 42.72 101.988 42.72H97.6995ZM114.026 43.04C111.893 43.04 110.123 42.7413 108.715 42.144C107.306 41.5253 106.24 40.7253 105.514 39.744C104.789 38.7627 104.405 37.7173 104.363 36.608C104.363 36.4373 104.427 36.288 104.555 36.16C104.704 36.0107 104.875 35.936 105.066 35.936H109.098C109.397 35.936 109.621 35.9893 109.771 36.096C109.941 36.2027 110.09 36.3413 110.218 36.512C110.389 36.832 110.624 37.1413 110.922 37.44C111.242 37.7387 111.648 37.984 112.139 38.176C112.651 38.3467 113.28 38.432 114.026 38.432C115.264 38.432 116.192 38.24 116.81 37.856C117.45 37.472 117.771 36.9493 117.771 36.288C117.771 35.8187 117.6 35.4347 117.258 35.136C116.917 34.816 116.362 34.5387 115.594 34.304C114.848 34.048 113.845 33.792 112.586 33.536C110.965 33.1947 109.578 32.7573 108.426 32.224C107.296 31.6693 106.432 30.9547 105.835 30.08C105.237 29.184 104.939 28.0747 104.939 26.752C104.939 25.4507 105.301 24.288 106.027 23.264C106.773 22.24 107.808 21.44 109.13 20.864C110.453 20.288 112.021 20 113.834 20C115.306 20 116.597 20.192 117.706 20.576C118.837 20.96 119.786 21.472 120.554 22.112C121.322 22.752 121.898 23.4347 122.282 24.16C122.688 24.864 122.901 25.5573 122.922 26.24C122.922 26.4107 122.858 26.5707 122.73 26.72C122.603 26.848 122.443 26.912 122.25 26.912H118.026C117.792 26.912 117.589 26.8693 117.418 26.784C117.248 26.6987 117.098 26.56 116.97 26.368C116.842 25.8987 116.501 25.4933 115.946 25.152C115.413 24.7893 114.709 24.608 113.834 24.608C112.896 24.608 112.16 24.7787 111.626 25.12C111.114 25.44 110.858 25.9413 110.858 26.624C110.858 27.0507 110.997 27.424 111.274 27.744C111.573 28.064 112.053 28.3413 112.715 28.576C113.397 28.8107 114.325 29.056 115.498 29.312C117.44 29.6747 119.008 30.1333 120.202 30.688C121.397 31.2213 122.272 31.9253 122.826 32.8C123.381 33.6533 123.658 34.7307 123.658 36.032C123.658 37.4827 123.243 38.7413 122.41 39.808C121.6 40.8533 120.469 41.6533 119.018 42.208C117.568 42.7627 115.904 43.04 114.026 43.04ZM126.062 42.72C125.827 42.72 125.635 42.6453 125.486 42.496C125.337 42.3467 125.262 42.1547 125.262 41.92V21.12C125.262 20.8853 125.337 20.6933 125.486 20.544C125.635 20.3947 125.827 20.32 126.062 20.32H135.822C137.657 20.32 139.161 20.576 140.334 21.088C141.507 21.6 142.371 22.336 142.926 23.296C143.502 24.2347 143.79 25.3547 143.79 26.656C143.79 27.424 143.641 28.1067 143.342 28.704C143.065 29.28 142.713 29.76 142.286 30.144C141.881 30.528 141.497 30.8053 141.134 30.976C141.945 31.36 142.659 31.9893 143.278 32.864C143.918 33.7387 144.238 34.7627 144.238 35.936C144.238 37.344 143.918 38.56 143.278 39.584C142.659 40.5867 141.742 41.3653 140.526 41.92C139.331 42.4533 137.859 42.72 136.11 42.72H126.062ZM130.99 38.56H135.47C136.387 38.56 137.081 38.2933 137.55 37.76C138.019 37.2267 138.254 36.6187 138.254 35.936C138.254 35.1893 138.009 34.56 137.518 34.048C137.049 33.536 136.366 33.28 135.47 33.28H130.99V38.56ZM130.99 29.216H135.182C136.057 29.216 136.707 28.992 137.134 28.544C137.582 28.096 137.806 27.52 137.806 26.816C137.806 26.1333 137.582 25.5787 137.134 25.152C136.707 24.704 136.057 24.48 135.182 24.48H130.99V29.216ZM146.993 42.72C146.759 42.72 146.567 42.6453 146.417 42.496C146.268 42.3467 146.193 42.1547 146.193 41.92V21.12C146.193 20.8853 146.268 20.6933 146.417 20.544C146.567 20.3947 146.759 20.32 146.993 20.32H151.281C151.516 20.32 151.708 20.3947 151.857 20.544C152.007 20.6933 152.081 20.8853 152.081 21.12V41.92C152.081 42.1547 152.007 42.3467 151.857 42.496C151.708 42.6453 151.516 42.72 151.281 42.72H146.993Z" fill="#283244"/>
<path fill-rule="evenodd" clip-rule="evenodd" d="M32 0C13.9719 0 0 13.2056 0 31.0408C0 40.3703 3.8245 48.4315 10.0507 54.0009C10.5722 54.4709 10.8877 55.1213 10.9135 55.823L11.0874 61.5148C11.1452 63.3305 13.0189 64.5088 14.6801 63.7811L21.0286 60.9804C21.5694 60.7421 22.1682 60.6971 22.7349 60.8516C25.6515 61.6564 28.7614 62.0814 32 62.0814C50.0283 62.0814 64 48.8758 64 31.0408C64 13.2056 50.0283 0 32 0Z" fill="url(#paint0_linear_1_3)"/>
<path opacity="0.5" d="M28.8527 14.5752L17.3491 17.6576C15.2152 18.2294 13.9489 20.4227 14.5206 22.5566L21.0383 46.881C21.6101 49.0149 23.8035 50.2812 25.9373 49.7094L37.441 46.627C39.5749 46.0553 40.8412 43.8619 40.2694 41.728L33.7517 17.4036C33.18 15.2698 30.9866 14.0034 28.8527 14.5752Z" fill="white"/>
<path d="M46.1359 17.773L34.6323 14.6905C32.4984 14.1188 30.305 15.3851 29.7333 17.519L23.2156 41.8434C22.6438 43.9773 23.9101 46.1706 26.044 46.7424L37.5477 49.8248C39.6815 50.3966 41.8749 49.1302 42.4467 46.9964L48.9644 22.6719C49.5361 20.5381 48.2698 18.3447 46.1359 17.773Z" fill="white"/>
<defs>
<linearGradient id="paint0_linear_1_3" x1="32" y1="3.08125e-05" x2="32" y2="64" gradientUnits="userSpaceOnUse">
<stop stop-color="#99BCFE"/>
<stop offset="1" stop-color="#575FCC"/>
</linearGradient>
</defs>
</svg>
