<svg width="64" height="27" viewBox="0 0 64 27" fill="none" xmlns="http://www.w3.org/2000/svg">
<path d="M36.0513 18.1124C35.1535 18.1124 34.4083 17.9867 33.8158 17.7353C33.2233 17.475 32.7744 17.1383 32.4692 16.7253C32.1639 16.3124 32.0023 15.8724 31.9844 15.4056C31.9844 15.3338 32.0113 15.2709 32.0652 15.2171C32.128 15.1543 32.1998 15.1228 32.2806 15.1228H33.9774C34.1031 15.1228 34.1974 15.1452 34.2602 15.1901C34.332 15.2351 34.3949 15.2934 34.4487 15.3652C34.5206 15.4999 34.6193 15.63 34.745 15.7557C34.8797 15.8814 35.0502 15.9847 35.2567 16.0655C35.4722 16.1373 35.737 16.1732 36.0513 16.1732C36.5719 16.1732 36.9625 16.0924 37.2228 15.9308C37.4922 15.7692 37.6268 15.5492 37.6268 15.2709C37.6268 15.0735 37.555 14.9119 37.4114 14.7862C37.2677 14.6515 37.0343 14.5348 36.7111 14.436C36.3969 14.3283 35.975 14.2206 35.4453 14.1128C34.763 13.9692 34.1794 13.7851 33.6946 13.5607C33.2188 13.3273 32.8552 13.0265 32.6038 12.6584C32.3525 12.2814 32.2268 11.8146 32.2268 11.2579C32.2268 10.7103 32.3794 10.221 32.6846 9.79009C32.9989 9.35916 33.4343 9.0225 33.9909 8.7801C34.5475 8.5377 35.2074 8.4165 35.9705 8.4165C36.5899 8.4165 37.1331 8.4973 37.5999 8.6589C38.0757 8.8205 38.4752 9.03596 38.7984 9.30529C39.1216 9.57462 39.364 9.86192 39.5256 10.1671C39.6962 10.4634 39.786 10.7552 39.7949 11.0425C39.7949 11.1143 39.768 11.1816 39.7141 11.2445C39.6603 11.2983 39.5929 11.3253 39.5121 11.3253H37.7346C37.6358 11.3253 37.5505 11.3073 37.4787 11.2714C37.4069 11.2355 37.344 11.1771 37.2902 11.0963C37.2363 10.8988 37.0927 10.7282 36.8592 10.5846C36.6348 10.432 36.3386 10.3557 35.9705 10.3557C35.5754 10.3557 35.2657 10.4275 35.0413 10.5711C34.8258 10.7058 34.7181 10.9168 34.7181 11.2041C34.7181 11.3836 34.7764 11.5407 34.8931 11.6754C35.0188 11.8101 35.2208 11.9268 35.4991 12.0255C35.7864 12.1243 36.177 12.2275 36.6707 12.3353C37.4877 12.4879 38.1475 12.6809 38.6503 12.9143C39.1531 13.1387 39.5211 13.435 39.7545 13.8031C39.988 14.1622 40.1047 14.6156 40.1047 15.1632C40.1047 15.7737 39.9296 16.3034 39.5795 16.7523C39.2383 17.1922 38.7625 17.5288 38.152 17.7622C37.5415 17.9957 36.8413 18.1124 36.0513 18.1124ZM41.1161 17.9777C41.0174 17.9777 40.9366 17.9463 40.8737 17.8834C40.8109 17.8206 40.7795 17.7398 40.7795 17.641V8.88783C40.7795 8.78906 40.8109 8.70826 40.8737 8.64543C40.9366 8.5826 41.0174 8.55117 41.1161 8.55117H42.9206C43.0194 8.55117 43.1002 8.5826 43.163 8.64543C43.2259 8.70826 43.2573 8.78906 43.2573 8.88783V17.641C43.2573 17.7398 43.2259 17.8206 43.163 17.8834C43.1002 17.9463 43.0194 17.9777 42.9206 17.9777H41.1161ZM47.987 18.1124C47.0892 18.1124 46.3441 17.9867 45.7515 17.7353C45.159 17.475 44.7101 17.1383 44.4049 16.7253C44.0997 16.3124 43.9381 15.8724 43.9201 15.4056C43.9201 15.3338 43.947 15.2709 44.0009 15.2171C44.0637 15.1543 44.1356 15.1228 44.2164 15.1228H45.9131C46.0388 15.1228 46.1331 15.1452 46.1959 15.1901C46.2678 15.2351 46.3306 15.2934 46.3845 15.3652C46.4563 15.4999 46.555 15.63 46.6807 15.7557C46.8154 15.8814 46.986 15.9847 47.1925 16.0655C47.4079 16.1373 47.6728 16.1732 47.987 16.1732C48.5077 16.1732 48.8982 16.0924 49.1586 15.9308C49.4279 15.7692 49.5626 15.5492 49.5626 15.2709C49.5626 15.0735 49.4907 14.9119 49.3471 14.7862C49.2035 14.6515 48.97 14.5348 48.6468 14.436C48.3326 14.3283 47.9107 14.2206 47.381 14.1128C46.6987 13.9692 46.1151 13.7851 45.6303 13.5607C45.1545 13.3273 44.7909 13.0265 44.5396 12.6584C44.2882 12.2814 44.1625 11.8146 44.1625 11.2579C44.1625 10.7103 44.3151 10.221 44.6204 9.79009C44.9346 9.35916 45.37 9.0225 45.9266 8.7801C46.4832 8.5377 47.1431 8.4165 47.9062 8.4165C48.5256 8.4165 49.0688 8.4973 49.5356 8.6589C50.0115 8.8205 50.411 9.03596 50.7341 9.30529C51.0573 9.57462 51.2997 9.86192 51.4613 10.1671C51.6319 10.4634 51.7217 10.7552 51.7307 11.0425C51.7307 11.1143 51.7037 11.1816 51.6499 11.2445C51.596 11.2983 51.5287 11.3253 51.4479 11.3253H49.6703C49.5715 11.3253 49.4863 11.3073 49.4144 11.2714C49.3426 11.2355 49.2798 11.1771 49.2259 11.0963C49.172 10.8988 49.0284 10.7282 48.795 10.5846C48.5705 10.432 48.2743 10.3557 47.9062 10.3557C47.5112 10.3557 47.2014 10.4275 46.977 10.5711C46.7615 10.7058 46.6538 10.9168 46.6538 11.2041C46.6538 11.3836 46.7122 11.5407 46.8289 11.6754C46.9546 11.8101 47.1566 11.9268 47.4349 12.0255C47.7222 12.1243 48.1127 12.2275 48.6064 12.3353C49.4234 12.4879 50.0833 12.6809 50.586 12.9143C51.0888 13.1387 51.4568 13.435 51.6903 13.8031C51.9237 14.1622 52.0404 14.6156 52.0404 15.1632C52.0404 15.7737 51.8653 16.3034 51.5152 16.7523C51.174 17.1922 50.6983 17.5288 50.0878 17.7622C49.4773 17.9957 48.777 18.1124 47.987 18.1124ZM53.0519 17.9777C52.9531 17.9777 52.8723 17.9463 52.8095 17.8834C52.7466 17.8206 52.7152 17.7398 52.7152 17.641V8.88783C52.7152 8.78906 52.7466 8.70826 52.8095 8.64543C52.8723 8.5826 52.9531 8.55117 53.0519 8.55117H57.1591C57.9312 8.55117 58.5642 8.6589 59.0579 8.87436C59.5517 9.08983 59.9153 9.39956 60.1487 9.80355C60.3911 10.1986 60.5123 10.6699 60.5123 11.2175C60.5123 11.5407 60.4495 11.828 60.3238 12.0794C60.2071 12.3218 60.0589 12.5238 59.8794 12.6854C59.7088 12.847 59.5472 12.9637 59.3946 13.0355C59.7357 13.1971 60.0365 13.4619 60.2968 13.83C60.5662 14.1981 60.7008 14.6291 60.7008 15.1228C60.7008 15.7153 60.5662 16.2271 60.2968 16.658C60.0365 17.08 59.6504 17.4076 59.1387 17.641C58.636 17.8655 58.0165 17.9777 57.2803 17.9777H53.0519ZM55.1257 16.2271H57.011C57.397 16.2271 57.6888 16.1148 57.8863 15.8904C58.0838 15.666 58.1826 15.4101 58.1826 15.1228C58.1826 14.8086 58.0794 14.5438 57.8729 14.3283C57.6754 14.1128 57.3881 14.0051 57.011 14.0051H55.1257V16.2271ZM55.1257 12.2949H56.8898C57.2579 12.2949 57.5317 12.2006 57.7113 12.0121C57.8998 11.8235 57.9941 11.5811 57.9941 11.2849C57.9941 10.9976 57.8998 10.7642 57.7113 10.5846C57.5317 10.3961 57.2579 10.3018 56.8898 10.3018H55.1257V12.2949ZM61.8603 17.9777C61.7616 17.9777 61.6808 17.9463 61.6179 17.8834C61.5551 17.8206 61.5236 17.7398 61.5236 17.641V8.88783C61.5236 8.78906 61.5551 8.70826 61.6179 8.64543C61.6808 8.5826 61.7616 8.55117 61.8603 8.55117H63.6648C63.7636 8.55117 63.8444 8.5826 63.9072 8.64543C63.9701 8.70826 64.0015 8.78906 64.0015 8.88783V17.641C64.0015 17.7398 63.9701 17.8206 63.9072 17.8834C63.8444 17.9463 63.7636 17.9777 63.6648 17.9777H61.8603Z" fill="#283244"/>
<path fill-rule="evenodd" clip-rule="evenodd" d="M13.4665 0C5.87976 0 0 5.55728 0 13.0628C0 16.9889 1.60946 20.3813 4.22961 22.7251C4.44908 22.9229 4.58185 23.1966 4.5927 23.4919L4.66589 25.8871C4.69021 26.6512 5.47871 27.1471 6.17779 26.8409L8.84942 25.6622C9.077 25.562 9.32899 25.543 9.56748 25.608C10.7949 25.9467 12.1036 26.1256 13.4665 26.1256C21.0533 26.1256 26.933 20.5683 26.933 13.0628C26.933 5.55728 21.0533 0 13.4665 0Z" fill="url(#paint0_linear_306_5542)"/>
<path opacity="0.5" d="M12.1428 6.13386L7.30173 7.43103C6.40375 7.67164 5.87084 8.59466 6.11145 9.49265L8.85429 19.729C9.0949 20.627 10.0179 21.1599 10.9159 20.9193L15.757 19.6222C16.655 19.3815 17.1879 18.4585 16.9473 17.5605L14.2044 7.32415C13.9638 6.42616 13.0408 5.89325 12.1428 6.13386Z" fill="white"/>
<path d="M19.4162 7.47942L14.5752 6.18226C13.6772 5.94164 12.7542 6.47455 12.5135 7.37254L9.77071 17.6089C9.5301 18.5069 10.063 19.4299 10.961 19.6706L15.8021 20.9677C16.7001 21.2083 17.6231 20.6754 17.8637 19.7774L20.6065 9.54104C20.8471 8.64305 20.3142 7.72003 19.4162 7.47942Z" fill="white"/>
<defs>
<linearGradient id="paint0_linear_306_5542" x1="13.4665" y1="1.29668e-05" x2="13.4665" y2="26.933" gradientUnits="userSpaceOnUse">
<stop stop-color="#99BCFE"/>
<stop offset="1" stop-color="#575FCC"/>
</linearGradient>
</defs>
</svg>
