<svg width="64" height="64" viewBox="0 0 64 64" fill="none" xmlns="http://www.w3.org/2000/svg">
<path fill-rule="evenodd" clip-rule="evenodd" d="M32 0C13.9719 0 0 13.2056 0 31.0408C0 40.3703 3.8245 48.4315 10.0507 54.0009C10.5722 54.4709 10.8877 55.1213 10.9135 55.823L11.0874 61.5148C11.1452 63.3305 13.0189 64.5088 14.6801 63.7811L21.0286 60.9804C21.5694 60.7421 22.1682 60.6971 22.7349 60.8516C25.6515 61.6564 28.7614 62.0814 32 62.0814C50.0283 62.0814 64 48.8758 64 31.0408C64 13.2056 50.0283 0 32 0Z" fill="url(#paint0_linear_172_7093)"/>
<path opacity="0.5" d="M28.8518 14.5757L17.3481 17.6581C15.2142 18.2299 13.9479 20.4232 14.5197 22.5571L21.0374 46.8815C21.6091 49.0154 23.8025 50.2817 25.9363 49.7099L37.44 46.6275C39.5739 46.0557 40.8402 43.8624 40.2685 41.7285L33.7507 17.4041C33.179 15.2702 30.9856 14.0039 28.8518 14.5757Z" fill="white"/>
<path d="M46.133 17.773L34.6293 14.6905C32.4955 14.1188 30.3021 15.3851 29.7303 17.519L23.2126 41.8434C22.6409 43.9773 23.9072 46.1706 26.0411 46.7424L37.5448 49.8248C39.6786 50.3966 41.872 49.1302 42.4437 46.9964L48.9614 22.6719C49.5332 20.5381 48.2669 18.3447 46.133 17.773Z" fill="white"/>
<defs>
<linearGradient id="paint0_linear_172_7093" x1="32" y1="3.08125e-05" x2="32" y2="64" gradientUnits="userSpaceOnUse">
<stop stop-color="#99BCFE"/>
<stop offset="1" stop-color="#575FCC"/>
</linearGradient>
</defs>
</svg>
