<svg width="20" height="20" viewBox="0 0 20 20" fill="none" xmlns="http://www.w3.org/2000/svg">
<path d="M0 9.99902C0 4.47618 4.47715 -0.000976562 10 -0.000976562C15.5228 -0.000976562 20 4.47618 20 9.99902C20 15.5219 15.5228 19.999 10 19.999C4.47715 19.999 0 15.5219 0 9.99902Z" fill="white"/>
<path d="M10 14.999C7.23858 14.999 5 12.7604 5 9.99902H-5C-5 18.2833 1.71573 24.999 10 24.999V14.999ZM15 9.99902C15 12.7604 12.7614 14.999 10 14.999V24.999C18.2843 24.999 25 18.2833 25 9.99902H15ZM10 4.99902C12.7614 4.99902 15 7.2376 15 9.99902H25C25 1.71475 18.2843 -5.00098 10 -5.00098V4.99902ZM10 -5.00098C1.71573 -5.00098 -5 1.71475 -5 9.99902H5C5 7.2376 7.23858 4.99902 10 4.99902V-5.00098Z" fill="#739EF1"/>
</svg>
